<svg width="237" height="262" viewBox="0 0 237 262" fill="none" xmlns="http://www.w3.org/2000/svg">
<path d="M197 0H40C17.9086 0 0 17.9086 0 40V222C0 244.091 17.9086 262 40 262H197C219.091 262 237 244.091 237 222V40C237 17.9086 219.091 0 197 0Z" fill="url(#paint0_linear_1_6)"/>
<path d="M197 0H40C17.9086 0 0 17.9086 0 40V222C0 244.091 17.9086 262 40 262H197C219.091 262 237 244.091 237 222V40C237 17.9086 219.091 0 197 0Z" fill="url(#paint1_linear_1_6)"/>
<defs>
<linearGradient id="paint0_linear_1_6" x1="7.5" y1="272.5" x2="161.673" y2="76.1627" gradientUnits="userSpaceOnUse">
<stop stop-color="#C2FFF8"/>
<stop offset="1" stop-color="white"/>
</linearGradient>
<linearGradient id="paint1_linear_1_6" x1="237" y1="278" x2="97" y2="43.5" gradientUnits="userSpaceOnUse">
<stop stop-color="#5877FE"/>
<stop offset="1" stop-color="white" stop-opacity="0"/>
</linearGradient>
</defs>
</svg>
